<?xml version="1.0" encoding="UTF-8" standalone="no"?>
<!DOCTYPE svg PUBLIC "-//W3C//DTD SVG 1.1//EN" "http://www.w3.org/Graphics/SVG/1.1/DTD/svg11.dtd">
<svg width="100%" height="100%" viewBox="0 0 1817 1817" version="1.1" xmlns="http://www.w3.org/2000/svg" xmlns:xlink="http://www.w3.org/1999/xlink" xml:space="preserve" xmlns:serif="http://www.serif.com/" style="fill-rule:evenodd;clip-rule:evenodd;stroke-linejoin:round;stroke-miterlimit:2;">
    <g transform="matrix(1,0,0,1,-1139.594517,-1139.594517)">
        <g transform="matrix(1.036993,0,0,1.036993,121.267823,-155.60919)">
            <path d="M2734,1557.016L2734,2692.984C2734,2862.983 2595.983,3001 2425.984,3001L1290.016,3001C1120.017,3001 982,2862.983 982,2692.984L982,1557.016C982,1387.017 1120.017,1249 1290.016,1249L2425.984,1249C2595.983,1249 2734,1387.017 2734,1557.016Z" style="fill:url(#_Linear1);"/>
        </g>
        <g transform="matrix(1,0,0,1,721.468088,515.810965)">
            <g transform="matrix(1,0,0,1,-454.968088,-390)">
                <circle cx="1260.5" cy="1401.5" r="200.5" style="fill:white;"/>
            </g>
            <g transform="matrix(0.778055,0,0,0.778055,606.277801,697.80611)">
                <circle cx="1260.5" cy="1401.5" r="200.5" style="fill:white;"/>
            </g>
            <g transform="matrix(1.15562,0,0,0.856158,-1992.800941,-147.523437)">
                <path d="M2595,1834.093L2595,2687.907C2595,2752.532 2556.129,2805 2508.25,2805L2334.75,2805C2286.871,2805 2248,2752.532 2248,2687.907L2248,1834.093C2248,1769.468 2286.871,1717 2334.75,1717L2508.25,1717C2556.129,1717 2595,1769.468 2595,1834.093Z" style="fill:white;"/>
            </g>
            <g transform="matrix(1.15562,0,0,0.898208,-1471.800941,-731.222656)">
                <path d="M2248,2511.378L2248,1828.611C2248,1767.011 2286.871,1717 2334.75,1717L2508.25,1717C2556.129,1717 2595,1767.011 2595,1828.611L2595,2217.322C2440.103,2240.918 2309.891,2335.383 2248,2511.378Z" style="fill:white;"/>
            </g>
            <g transform="matrix(1.15562,0,0,0.898208,-950.832853,-731.844587)">
                <path d="M2248,2218.014L2248,1828.611C2248,1767.011 2286.871,1717 2334.75,1717L2508.25,1717C2556.129,1717 2595,1767.011 2595,1828.611L2593.482,2512.07C2531.591,2336.076 2402.897,2241.61 2248,2218.014Z" style="fill:white;"/>
            </g>
            <g>
                <g transform="matrix(1.018749,0,0,1,-38.398503,0)">
                    <path d="M1725.26,1981.807C1778.533,1943.717 1814.98,1882.831 1820.901,1813.106L2046.278,1833.193C2040.296,1902.848 2018.95,1969.289 1984.778,2028.033C1951.893,2084.405 1907.545,2133.042 1855.02,2170.598L1725.26,1981.807Z" style="fill:white;"/>
                </g>
                <g transform="matrix(1.018749,0,0,1,-38.398503,0)">
                    <path d="M1691.128,2001.937L1786.735,2210.809C1726.85,2239.258 1661.576,2254 1595.5,2254C1529.424,2254 1464.15,2239.258 1404.265,2210.809L1499.872,2001.937C1528.925,2015.776 1561.333,2023.508 1595.5,2023.508C1629.667,2023.508 1662.075,2015.776 1691.128,2001.937Z" style="fill:white;"/>
                </g>
                <g transform="matrix(1.018749,0,0,1,-38.398503,0)">
                    <path d="M1206.222,2028.033C1172.05,1969.289 1150.704,1902.848 1144.722,1833.193L1370.099,1813.106C1376.02,1882.831 1412.467,1943.717 1465.74,1981.807L1335.98,2170.598C1283.455,2133.042 1239.107,2084.406 1206.222,2028.033Z" style="fill:white;"/>
                </g>
                <g transform="matrix(-1.018749,0,-0,-1,3212.430427,3585.105662)">
                    <path d="M1725.26,1981.807C1778.533,1943.717 1814.98,1882.831 1820.901,1813.106L2046.278,1833.193C2040.296,1902.848 2018.95,1969.289 1984.778,2028.033C1951.893,2084.405 1907.545,2133.042 1855.02,2170.598L1725.26,1981.807Z" style="fill:white;"/>
                </g>
                <g transform="matrix(-1.018749,0,-0,-1,3212.430427,3585.105662)">
                    <path d="M1691.128,2001.937L1786.735,2210.809C1726.85,2239.258 1661.576,2254 1595.5,2254C1529.424,2254 1464.15,2239.258 1404.265,2210.809L1499.872,2001.937C1528.925,2015.776 1561.333,2023.508 1595.5,2023.508C1629.667,2023.508 1662.075,2015.776 1691.128,2001.937Z" style="fill:white;"/>
                </g>
                <g transform="matrix(-1.018749,0,-0,-1,3212.430427,3585.105662)">
                    <path d="M1206.222,2028.033C1172.05,1969.289 1150.704,1902.848 1144.722,1833.193L1370.099,1813.106C1376.02,1882.831 1412.467,1943.717 1465.74,1981.807L1335.98,2170.598C1283.455,2133.042 1239.107,2084.406 1206.222,2028.033Z" style="fill:white;"/>
                </g>
            </g>
        </g>
    </g>
    <defs>
        <linearGradient id="_Linear1" x1="0" y1="0" x2="1" y2="0" gradientUnits="userSpaceOnUse" gradientTransform="matrix(1752,0,0,1752,982,2125)"><stop offset="0" style="stop-color:rgb(77,205,255);stop-opacity:1"/><stop offset="0.28" style="stop-color:rgb(101,166,255);stop-opacity:1"/><stop offset="0.5" style="stop-color:rgb(111,150,255);stop-opacity:1"/><stop offset="1" style="stop-color:rgb(255,167,251);stop-opacity:1"/></linearGradient>
    </defs>
</svg>
