<?xml version="1.0" encoding="UTF-8" standalone="no"?>
<!DOCTYPE svg PUBLIC "-//W3C//DTD SVG 1.1//EN" "http://www.w3.org/Graphics/SVG/1.1/DTD/svg11.dtd">
<svg width="100%" height="100%" viewBox="0 0 815 815" version="1.1" xmlns="http://www.w3.org/2000/svg" xmlns:xlink="http://www.w3.org/1999/xlink" xml:space="preserve" xmlns:serif="http://www.serif.com/" style="fill-rule:evenodd;clip-rule:evenodd;stroke-linecap:round;stroke-linejoin:round;stroke-miterlimit:1.5;">
    <g transform="matrix(1,0,0,1,-1640.501934,-1493.501934)">
        <g transform="matrix(0.46518,0,0,0.46518,1183.694742,912.491564)">
            <path d="M2734,1557.016L2734,2692.984C2734,2862.983 2595.983,3001 2425.984,3001L1290.016,3001C1120.017,3001 982,2862.983 982,2692.984L982,1557.016C982,1387.017 1120.017,1249 1290.016,1249L2425.984,1249C2595.983,1249 2734,1387.017 2734,1557.016Z" style="fill:rgb(49,186,232);"/>
        </g>
        <g transform="matrix(0.448586,0,0,0.448586,1452.846671,1213.681308)">
            <g transform="matrix(1,0,0,1,-454.968088,-390)">
                <circle cx="1260.5" cy="1401.5" r="200.5" style="fill:white;"/>
            </g>
            <g transform="matrix(0.778055,0,0,0.778055,606.277801,697.80611)">
                <circle cx="1260.5" cy="1401.5" r="200.5" style="fill:white;"/>
            </g>
            <g transform="matrix(1.15562,0,0,0.839767,-1992.800941,-119.379453)">
                <path d="M2595,1836.378L2595,2685.622C2595,2751.508 2556.129,2805 2508.25,2805L2334.75,2805C2286.871,2805 2248,2751.508 2248,2685.622L2248,1836.378C2248,1770.492 2286.871,1717 2334.75,1717L2508.25,1717C2556.129,1717 2595,1770.492 2595,1836.378Z" style="fill:white;"/>
            </g>
            <g transform="matrix(1.15562,0,0,0.898208,-1471.800941,-731.222656)">
                <path d="M2248,2511.378L2248,1828.611C2248,1767.011 2286.871,1717 2334.75,1717L2508.25,1717C2556.129,1717 2595,1767.011 2595,1828.611L2595,2217.322C2440.103,2240.918 2309.891,2335.383 2248,2511.378Z" style="fill:white;"/>
            </g>
            <g transform="matrix(1.15562,0,0,0.898208,-950.832853,-731.844587)">
                <path d="M2248,2218.014L2248,1828.611C2248,1767.011 2286.871,1717 2334.75,1717L2508.25,1717C2556.129,1717 2595,1767.011 2595,1828.611L2593.482,2512.07C2531.591,2336.076 2402.897,2241.61 2248,2218.014Z" style="fill:white;"/>
            </g>
            <g transform="matrix(2.229226,0,0,2.229226,-8005.342907,-7598.722665)">
                <circle cx="4302.999" cy="4212.796" r="206.999" style="fill:white;stroke:rgb(208,218,247);stroke-opacity:0;stroke-width:1px;"/>
            </g>
        </g>
    </g>
</svg>
